<svg id="my-svg" width="100%" xmlns="http://www.w3.org/2000/svg" xmlns:xlink="http://www.w3.org/1999/xlink" class="classDiagram" style="max-width: 508.77px; background-color: white;" viewBox="0 0 508.76953125 459" role="graphics-document document" aria-roledescription="class"><style>#my-svg{font-family:"trebuchet ms",verdana,arial,sans-serif;font-size:16px;fill:#000000;}@keyframes edge-animation-frame{from{stroke-dashoffset:0;}}@keyframes dash{to{stroke-dashoffset:0;}}#my-svg .edge-animation-slow{stroke-dasharray:9,5!important;stroke-dashoffset:900;animation:dash 50s linear infinite;stroke-linecap:round;}#my-svg .edge-animation-fast{stroke-dasharray:9,5!important;stroke-dashoffset:900;animation:dash 20s linear infinite;stroke-linecap:round;}#my-svg .error-icon{fill:#552222;}#my-svg .error-text{fill:#552222;stroke:#552222;}#my-svg .edge-thickness-normal{stroke-width:1px;}#my-svg .edge-thickness-thick{stroke-width:3.5px;}#my-svg .edge-pattern-solid{stroke-dasharray:0;}#my-svg .edge-thickness-invisible{stroke-width:0;fill:none;}#my-svg .edge-pattern-dashed{stroke-dasharray:3;}#my-svg .edge-pattern-dotted{stroke-dasharray:2;}#my-svg .marker{fill:#666;stroke:#666;}#my-svg .marker.cross{stroke:#666;}#my-svg svg{font-family:"trebuchet ms",verdana,arial,sans-serif;font-size:16px;}#my-svg p{margin:0;}#my-svg g.classGroup text{fill:#999;stroke:none;font-family:"trebuchet ms",verdana,arial,sans-serif;font-size:10px;}#my-svg g.classGroup text .title{font-weight:bolder;}#my-svg .nodeLabel,#my-svg .edgeLabel{color:#111111;}#my-svg .edgeLabel .label rect{fill:#eee;}#my-svg .label text{fill:#111111;}#my-svg .labelBkg{background:#eee;}#my-svg .edgeLabel .label span{background:#eee;}#my-svg .classTitle{font-weight:bolder;}#my-svg .node rect,#my-svg .node circle,#my-svg .node ellipse,#my-svg .node polygon,#my-svg .node path{fill:#eee;stroke:#999;stroke-width:1px;}#my-svg .divider{stroke:#999;stroke-width:1;}#my-svg g.clickable{cursor:pointer;}#my-svg g.classGroup rect{fill:#eee;stroke:#999;}#my-svg g.classGroup line{stroke:#999;stroke-width:1;}#my-svg .classLabel .box{stroke:none;stroke-width:0;fill:#eee;opacity:0.5;}#my-svg .classLabel .label{fill:#999;font-size:10px;}#my-svg .relation{stroke:#666;stroke-width:1;fill:none;}#my-svg .dashed-line{stroke-dasharray:3;}#my-svg .dotted-line{stroke-dasharray:1 2;}#my-svg #compositionStart,#my-svg .composition{fill:#666!important;stroke:#666!important;stroke-width:1;}#my-svg #compositionEnd,#my-svg .composition{fill:#666!important;stroke:#666!important;stroke-width:1;}#my-svg #dependencyStart,#my-svg .dependency{fill:#666!important;stroke:#666!important;stroke-width:1;}#my-svg #dependencyStart,#my-svg .dependency{fill:#666!important;stroke:#666!important;stroke-width:1;}#my-svg #extensionStart,#my-svg .extension{fill:transparent!important;stroke:#666!important;stroke-width:1;}#my-svg #extensionEnd,#my-svg .extension{fill:transparent!important;stroke:#666!important;stroke-width:1;}#my-svg #aggregationStart,#my-svg .aggregation{fill:transparent!important;stroke:#666!important;stroke-width:1;}#my-svg #aggregationEnd,#my-svg .aggregation{fill:transparent!important;stroke:#666!important;stroke-width:1;}#my-svg #lollipopStart,#my-svg .lollipop{fill:#eee!important;stroke:#666!important;stroke-width:1;}#my-svg #lollipopEnd,#my-svg .lollipop{fill:#eee!important;stroke:#666!important;stroke-width:1;}#my-svg .edgeTerminals{font-size:11px;line-height:initial;}#my-svg .classTitleText{text-anchor:middle;font-size:18px;fill:#000000;}#my-svg .label-icon{display:inline-block;height:1em;overflow:visible;vertical-align:-0.125em;}#my-svg .node .label-icon path{fill:currentColor;stroke:revert;stroke-width:revert;}#my-svg :root{--mermaid-font-family:"trebuchet ms",verdana,arial,sans-serif;}</style><g><defs><marker id="my-svg_class-aggregationStart" class="marker aggregation class" refX="18" refY="7" markerWidth="190" markerHeight="240" orient="auto"><path d="M 18,7 L9,13 L1,7 L9,1 Z"/></marker></defs><defs><marker id="my-svg_class-aggregationEnd" class="marker aggregation class" refX="1" refY="7" markerWidth="20" markerHeight="28" orient="auto"><path d="M 18,7 L9,13 L1,7 L9,1 Z"/></marker></defs><defs><marker id="my-svg_class-extensionStart" class="marker extension class" refX="18" refY="7" markerWidth="190" markerHeight="240" orient="auto"><path d="M 1,7 L18,13 V 1 Z"/></marker></defs><defs><marker id="my-svg_class-extensionEnd" class="marker extension class" refX="1" refY="7" markerWidth="20" markerHeight="28" orient="auto"><path d="M 1,1 V 13 L18,7 Z"/></marker></defs><defs><marker id="my-svg_class-compositionStart" class="marker composition class" refX="18" refY="7" markerWidth="190" markerHeight="240" orient="auto"><path d="M 18,7 L9,13 L1,7 L9,1 Z"/></marker></defs><defs><marker id="my-svg_class-compositionEnd" class="marker composition class" refX="1" refY="7" markerWidth="20" markerHeight="28" orient="auto"><path d="M 18,7 L9,13 L1,7 L9,1 Z"/></marker></defs><defs><marker id="my-svg_class-dependencyStart" class="marker dependency class" refX="6" refY="7" markerWidth="190" markerHeight="240" orient="auto"><path d="M 5,7 L9,13 L1,7 L9,1 Z"/></marker></defs><defs><marker id="my-svg_class-dependencyEnd" class="marker dependency class" refX="13" refY="7" markerWidth="20" markerHeight="28" orient="auto"><path d="M 18,7 L9,13 L14,7 L9,1 Z"/></marker></defs><defs><marker id="my-svg_class-lollipopStart" class="marker lollipop class" refX="13" refY="7" markerWidth="190" markerHeight="240" orient="auto"><circle stroke="black" fill="transparent" cx="7" cy="7" r="6"/></marker></defs><defs><marker id="my-svg_class-lollipopEnd" class="marker lollipop class" refX="1" refY="7" markerWidth="190" markerHeight="240" orient="auto"><circle stroke="black" fill="transparent" cx="7" cy="7" r="6"/></marker></defs><g class="root"><g class="clusters"/><g class="edgePaths"><path d="M139.388,194L136.321,199.917C133.254,205.833,127.12,217.667,124.053,229.5C120.986,241.333,120.986,253.167,120.986,259.083L120.986,265" id="id_QualityMeasurement_Metric_1" class="edge-thickness-normal edge-pattern-solid relation" style=";;;" data-edge="true" data-et="edge" data-id="id_QualityMeasurement_Metric_1" data-points="W3sieCI6MTM5LjM4NzYwMDMxNjE0Nzg1LCJ5IjoxOTR9LHsieCI6MTIwLjk4NjMyODEyNSwieSI6MjI5LjV9LHsieCI6MTIwLjk4NjMyODEyNSwieSI6MjY1fV0="/><path d="M264.128,194L268.997,199.917C273.866,205.833,283.605,217.667,302.294,238.583C320.983,259.5,348.623,289.5,362.443,304.5L376.263,319.5" id="id_QualityMeasurement_Resource_2" class="edge-thickness-normal edge-pattern-solid relation" style=";;;" data-edge="true" data-et="edge" data-id="id_QualityMeasurement_Resource_2" data-points="W3sieCI6MjY0LjEyODA2MjY4MjM5Mjk3LCJ5IjoxOTR9LHsieCI6MjkzLjM0Mjc3MzQzNzUsInkiOjIyOS41fSx7IngiOjM3Ni4yNjI5NjEzMDIyODYsInkiOjMxOS41fV0="/><path d="M459.531,139.5L459.531,154.5C459.531,169.5,459.531,199.5,454.954,226.805C450.377,254.111,441.223,278.721,436.646,291.027L432.069,303.332" id="id_Dataset_Resource_3" class="edge-thickness-normal edge-pattern-solid relation" style=";;;" data-edge="true" data-et="edge" data-id="id_Dataset_Resource_3" data-points="W3sieCI6NDU5LjUzMTI1LCJ5IjoxMzkuNX0seyJ4Ijo0NTkuNTMxMjUsInkiOjIyOS41fSx7IngiOjQyNi4wNTQ4Mzk0OTQxNjM0NSwieSI6MzE5LjV9XQ==" marker-end="url(#my-svg_class-extensionEnd)"/></g><g class="edgeLabels"><g class="edgeLabel" transform="translate(120.986328125, 229.5)"><g class="label" data-id="id_QualityMeasurement_Metric_1" transform="translate(-65.41015625, -10.5)"><g><rect class="background" style="" x="-2" y="0" width="130.8203125" height="21"/><text y="-10.1" style=""><tspan class="text-outer-tspan" x="0" y="-0.1em" dy="1.1em"><tspan font-style="normal" class="text-inner-tspan" font-weight="normal">isMeasurementOf</tspan></tspan></text></g></g></g><g class="edgeLabel" transform="translate(319.22663, 257.59384)"><g class="label" data-id="id_QualityMeasurement_Resource_2" transform="translate(-47.8046875, -10.5)"><g><rect class="background" style="" x="-2" y="0" width="95.609375" height="21"/><text y="-10.1" style=""><tspan class="text-outer-tspan" x="0" y="-0.1em" dy="1.1em"><tspan font-style="normal" class="text-inner-tspan" font-weight="normal">computedOn</tspan></tspan></text></g></g></g><g class="edgeLabel" transform="translate(459.53125, 229.5)"><g class="label" data-id="id_Dataset_Resource_3" transform="translate(-27.7890625, -10.5)"><g><rect class="background" style="" x="-2" y="0" width="55.578125" height="21"/><text y="-10.1" style=""><tspan class="text-outer-tspan" x="0" y="-0.1em" dy="1.1em"><tspan font-style="normal" class="text-inner-tspan" font-weight="normal">inherits</tspan></tspan></text></g></g></g><g class="edgeTerminals" transform="translate(118.01690740828249, 202.63385526419194)"><g class="inner" transform="translate(-3.0625, -6)"><text style=""><tspan xml:space="preserve" dy="1em" x="0" class="row">1</tspan></text></g></g><g class="edgeTerminals" transform="translate(263.66602275954347, 217.04423125460355)"><g class="inner" transform="translate(-3.0625, -6)"><text style=""><tspan xml:space="preserve" dy="1em" x="0" class="row">1</tspan></text></g></g><g class="edgeTerminals" transform="translate(130.98632906249998, 242.50000080357142)"><g class="inner" transform="translate(-3.0625, -6)"/><text style=""><tspan xml:space="preserve" dy="1em" x="0" class="row">1</tspan></text></g><g class="edgeTerminals" transform="translate(370.4367869130263, 291.4659503097388)"><g class="inner" transform="translate(-3.0625, -6)"/><text style=""><tspan xml:space="preserve" dy="1em" x="0" class="row">1</tspan></text></g></g><g class="nodes"><g class="node default" id="classId-QualityMeasurement-0" transform="translate(187.59375, 101)"><g class="basic label-container"><path d="M-145.544921875 -93 L145.544921875 -93 L145.544921875 93 L-145.544921875 93" stroke="none" stroke-width="0" fill="#eee" style=""/><path d="M-145.544921875 -93 C-35.187698050220376 -93, 75.16952577455925 -93, 145.544921875 -93 M-145.544921875 -93 C-78.62552122390115 -93, -11.706120572802291 -93, 145.544921875 -93 M145.544921875 -93 C145.544921875 -48.95179317919724, 145.544921875 -4.903586358394477, 145.544921875 93 M145.544921875 -93 C145.544921875 -39.821368735071424, 145.544921875 13.357262529857152, 145.544921875 93 M145.544921875 93 C58.040509189910765 93, -29.46390349517847 93, -145.544921875 93 M145.544921875 93 C51.657279289706025 93, -42.23036329558795 93, -145.544921875 93 M-145.544921875 93 C-145.544921875 32.443534666275056, -145.544921875 -28.112930667449888, -145.544921875 -93 M-145.544921875 93 C-145.544921875 34.65594801836603, -145.544921875 -23.688103963267935, -145.544921875 -93" stroke="#999" stroke-width="1.3" fill="none" stroke-dasharray="0 0" style=""/></g><g class="annotation-group text" transform="translate(0, -73)"/><g class="label-group text" transform="translate(-79.02734375, -73)"><g class="label" style="font-weight: bolder" transform="translate(0,-8.5)"><g><rect class="background" style="stroke: none"/><text y="-10.1" style=""><tspan class="text-outer-tspan" x="0" y="-0.1em" dy="1.1em" font-weight=""><tspan font-style="normal" class="text-inner-tspan" font-weight="">QualityMeasurement</tspan></tspan></text></g></g></g><g class="members-group text" transform="translate(-133.544921875, -32)"><g class="label" style="" transform="translate(0,-8.5)"><g><rect class="background" style="stroke: none"/><text y="-10.1" style=""><tspan class="text-outer-tspan" x="0" y="-0.1em" dy="1.1em"><tspan font-style="normal" class="text-inner-tspan" font-weight="normal">+identifier:</tspan><tspan font-style="normal" class="text-inner-tspan" font-weight="normal"> string</tspan></tspan></text></g></g><g class="label" style="" transform="translate(0,11.5)"><g><rect class="background" style="stroke: none"/><text y="-10.1" style=""><tspan class="text-outer-tspan" x="0" y="-0.1em" dy="1.1em"><tspan font-style="normal" class="text-inner-tspan" font-weight="normal">+computedOn:</tspan><tspan font-style="normal" class="text-inner-tspan" font-weight="normal"> Resource</tspan></tspan></text></g></g><g class="label" style="" transform="translate(0,31.5)"><g><rect class="background" style="stroke: none"/><text y="-10.1" style=""><tspan class="text-outer-tspan" x="0" y="-0.1em" dy="1.1em"><tspan font-style="normal" class="text-inner-tspan" font-weight="normal">+isMeasurementOf:</tspan><tspan font-style="normal" class="text-inner-tspan" font-weight="normal"> Metric</tspan></tspan></text></g></g><g class="label" style="" transform="translate(0,51.5)"><g><rect class="background" style="stroke: none"/><text y="-10.1" style=""><tspan class="text-outer-tspan" x="0" y="-0.1em" dy="1.1em"><tspan font-style="normal" class="text-inner-tspan" font-weight="normal">+value:</tspan><tspan font-style="normal" class="text-inner-tspan" font-weight="normal"> float</tspan></tspan></text></g></g><g class="label" style="" transform="translate(0,71.5)"><g><rect class="background" style="stroke: none"/><text y="-10.1" style=""><tspan class="text-outer-tspan" x="0" y="-0.1em" dy="1.1em"><tspan font-style="normal" class="text-inner-tspan" font-weight="normal">+generatedAtTime:</tspan><tspan font-style="normal" class="text-inner-tspan" font-weight="normal"> date</tspan></tspan></text></g></g></g><g class="methods-group text" transform="translate(-133.544921875, 89)"/><g class="divider" style=""><path d="M-145.544921875 -52 C-45.5813660526737 -52, 54.3821897696526 -52, 145.544921875 -52 M-145.544921875 -52 C-62.293427946960804 -52, 20.95806598107839 -52, 145.544921875 -52" stroke="#999" stroke-width="1.3" fill="none" stroke-dasharray="0 0" style=""/></g><g class="divider" style=""><path d="M-145.544921875 69 C-59.56125485420051 69, 26.422412166598974 69, 145.544921875 69 M-145.544921875 69 C-82.40477808942161 69, -19.264634303843224 69, 145.544921875 69" stroke="#999" stroke-width="1.3" fill="none" stroke-dasharray="0 0" style=""/></g></g><g class="node default" id="classId-Metric-1" transform="translate(120.986328125, 358)"><g class="basic label-container"><path d="M-112.986328125 -93 L112.986328125 -93 L112.986328125 93 L-112.986328125 93" stroke="none" stroke-width="0" fill="#eee" style=""/><path d="M-112.986328125 -93 C-61.24494749012962 -93, -9.503566855259237 -93, 112.986328125 -93 M-112.986328125 -93 C-38.074114070718394 -93, 36.83809998356321 -93, 112.986328125 -93 M112.986328125 -93 C112.986328125 -41.1903728602864, 112.986328125 10.619254279427196, 112.986328125 93 M112.986328125 -93 C112.986328125 -19.005794588534286, 112.986328125 54.98841082293143, 112.986328125 93 M112.986328125 93 C54.770545438657145 93, -3.4452372476857107 93, -112.986328125 93 M112.986328125 93 C46.118505461470264 93, -20.749317202059473 93, -112.986328125 93 M-112.986328125 93 C-112.986328125 22.719002064566325, -112.986328125 -47.56199587086735, -112.986328125 -93 M-112.986328125 93 C-112.986328125 26.91774032100419, -112.986328125 -39.16451935799162, -112.986328125 -93" stroke="#999" stroke-width="1.3" fill="none" stroke-dasharray="0 0" style=""/></g><g class="annotation-group text" transform="translate(0, -73)"/><g class="label-group text" transform="translate(-23.61328125, -73)"><g class="label" style="font-weight: bolder" transform="translate(0,-8.5)"><g><rect class="background" style="stroke: none"/><text y="-10.1" style=""><tspan class="text-outer-tspan" x="0" y="-0.1em" dy="1.1em" font-weight=""><tspan font-style="normal" class="text-inner-tspan" font-weight="">Metric</tspan></tspan></text></g></g></g><g class="members-group text" transform="translate(-100.986328125, -32)"><g class="label" style="" transform="translate(0,-8.5)"><g><rect class="background" style="stroke: none"/><text y="-10.1" style=""><tspan class="text-outer-tspan" x="0" y="-0.1em" dy="1.1em"><tspan font-style="normal" class="text-inner-tspan" font-weight="normal">+identifier:</tspan><tspan font-style="normal" class="text-inner-tspan" font-weight="normal"> string</tspan></tspan></text></g></g><g class="label" style="" transform="translate(0,11.5)"><g><rect class="background" style="stroke: none"/><text y="-10.1" style=""><tspan class="text-outer-tspan" x="0" y="-0.1em" dy="1.1em"><tspan font-style="normal" class="text-inner-tspan" font-weight="normal">+definition:</tspan><tspan font-style="normal" class="text-inner-tspan" font-weight="normal"> string</tspan></tspan></text></g></g><g class="label" style="" transform="translate(0,31.5)"><g><rect class="background" style="stroke: none"/><text y="-10.1" style=""><tspan class="text-outer-tspan" x="0" y="-0.1em" dy="1.1em"><tspan font-style="normal" class="text-inner-tspan" font-weight="normal">+prefLabel:</tspan><tspan font-style="normal" class="text-inner-tspan" font-weight="normal"> string</tspan></tspan></text></g></g><g class="label" style="" transform="translate(0,51.5)"><g><rect class="background" style="stroke: none"/><text y="-10.1" style=""><tspan class="text-outer-tspan" x="0" y="-0.1em" dy="1.1em"><tspan font-style="normal" class="text-inner-tspan" font-weight="normal">+expectedDataType:</tspan><tspan font-style="normal" class="text-inner-tspan" font-weight="normal"> Any</tspan></tspan></text></g></g><g class="label" style="" transform="translate(0,71.5)"><g><rect class="background" style="stroke: none"/><text y="-10.1" style=""><tspan class="text-outer-tspan" x="0" y="-0.1em" dy="1.1em"><tspan font-style="normal" class="text-inner-tspan" font-weight="normal">+inDimension:</tspan><tspan font-style="normal" class="text-inner-tspan" font-weight="normal"> string</tspan></tspan></text></g></g></g><g class="methods-group text" transform="translate(-100.986328125, 89)"/><g class="divider" style=""><path d="M-112.986328125 -52 C-52.38845546101558 -52, 8.209417202968837 -52, 112.986328125 -52 M-112.986328125 -52 C-52.021479567222094 -52, 8.943368990555811 -52, 112.986328125 -52" stroke="#999" stroke-width="1.3" fill="none" stroke-dasharray="0 0" style=""/></g><g class="divider" style=""><path d="M-112.986328125 69 C-48.79124362736967 69, 15.403840870260666 69, 112.986328125 69 M-112.986328125 69 C-49.15394824975584 69, 14.678431625488315 69, 112.986328125 69" stroke="#999" stroke-width="1.3" fill="none" stroke-dasharray="0 0" style=""/></g></g><g class="node default" id="classId-Resource-2" transform="translate(411.734375, 358)"><g class="basic label-container"><path d="M-48.51171875 -38.5 L48.51171875 -38.5 L48.51171875 38.5 L-48.51171875 38.5" stroke="none" stroke-width="0" fill="#eee" style=""/><path d="M-48.51171875 -38.5 C-24.135262525941215 -38.5, 0.24119369811756997 -38.5, 48.51171875 -38.5 M-48.51171875 -38.5 C-15.807370906833704 -38.5, 16.896976936332592 -38.5, 48.51171875 -38.5 M48.51171875 -38.5 C48.51171875 -19.01030373311187, 48.51171875 0.479392533776263, 48.51171875 38.5 M48.51171875 -38.5 C48.51171875 -20.073180737042723, 48.51171875 -1.6463614740854453, 48.51171875 38.5 M48.51171875 38.5 C12.870262154780889 38.5, -22.771194440438222 38.5, -48.51171875 38.5 M48.51171875 38.5 C15.916182611485802 38.5, -16.679353527028397 38.5, -48.51171875 38.5 M-48.51171875 38.5 C-48.51171875 12.898656969293274, -48.51171875 -12.702686061413452, -48.51171875 -38.5 M-48.51171875 38.5 C-48.51171875 18.54254140859016, -48.51171875 -1.4149171828196785, -48.51171875 -38.5" stroke="#999" stroke-width="1.3" fill="none" stroke-dasharray="0 0" style=""/></g><g class="annotation-group text" transform="translate(0, -18.5)"/><g class="label-group text" transform="translate(-36.51171875, -18.5)"><g class="label" style="font-weight: bolder" transform="translate(0,-8.5)"><g><rect class="background" style="stroke: none"/><text y="-10.1" style=""><tspan class="text-outer-tspan" x="0" y="-0.1em" dy="1.1em" font-weight=""><tspan font-style="normal" class="text-inner-tspan" font-weight="">Resource</tspan></tspan></text></g></g></g><g class="members-group text" transform="translate(-36.51171875, 22.5)"/><g class="methods-group text" transform="translate(-36.51171875, 52.5)"/><g class="divider" style=""><path d="M-48.51171875 2.5 C-13.552158421079135 2.5, 21.40740190784173 2.5, 48.51171875 2.5 M-48.51171875 2.5 C-16.394257845424512 2.5, 15.723203059150975 2.5, 48.51171875 2.5" stroke="#999" stroke-width="1.3" fill="none" stroke-dasharray="0 0" style=""/></g><g class="divider" style=""><path d="M-48.51171875 20.5 C-9.885604942865605 20.5, 28.74050886426879 20.5, 48.51171875 20.5 M-48.51171875 20.5 C-10.835332349344299 20.5, 26.841054051311403 20.5, 48.51171875 20.5" stroke="#999" stroke-width="1.3" fill="none" stroke-dasharray="0 0" style=""/></g></g><g class="node default" id="classId-Dataset-3" transform="translate(459.53125, 101)"><g class="basic label-container"><path d="M-41.23828125 -38.5 L41.23828125 -38.5 L41.23828125 38.5 L-41.23828125 38.5" stroke="none" stroke-width="0" fill="#eee" style=""/><path d="M-41.23828125 -38.5 C-8.737569840597168 -38.5, 23.763141568805665 -38.5, 41.23828125 -38.5 M-41.23828125 -38.5 C-18.478040071549756 -38.5, 4.282201106900487 -38.5, 41.23828125 -38.5 M41.23828125 -38.5 C41.23828125 -20.38389231605277, 41.23828125 -2.2677846321055384, 41.23828125 38.5 M41.23828125 -38.5 C41.23828125 -10.944382656146146, 41.23828125 16.611234687707707, 41.23828125 38.5 M41.23828125 38.5 C13.12156894013215 38.5, -14.9951433697357 38.5, -41.23828125 38.5 M41.23828125 38.5 C16.901346502962955 38.5, -7.43558824407409 38.5, -41.23828125 38.5 M-41.23828125 38.5 C-41.23828125 21.31572255674069, -41.23828125 4.1314451134813766, -41.23828125 -38.5 M-41.23828125 38.5 C-41.23828125 17.762450007402037, -41.23828125 -2.975099985195925, -41.23828125 -38.5" stroke="#999" stroke-width="1.3" fill="none" stroke-dasharray="0 0" style=""/></g><g class="annotation-group text" transform="translate(0, -18.5)"/><g class="label-group text" transform="translate(-29.23828125, -18.5)"><g class="label" style="font-weight: bolder" transform="translate(0,-8.5)"><g><rect class="background" style="stroke: none"/><text y="-10.1" style=""><tspan class="text-outer-tspan" x="0" y="-0.1em" dy="1.1em" font-weight=""><tspan font-style="normal" class="text-inner-tspan" font-weight="">Dataset</tspan></tspan></text></g></g></g><g class="members-group text" transform="translate(-29.23828125, 22.5)"/><g class="methods-group text" transform="translate(-29.23828125, 52.5)"/><g class="divider" style=""><path d="M-41.23828125 2.5 C-14.091717818824126 2.5, 13.054845612351748 2.5, 41.23828125 2.5 M-41.23828125 2.5 C-16.10243884117814 2.5, 9.033403567643717 2.5, 41.23828125 2.5" stroke="#999" stroke-width="1.3" fill="none" stroke-dasharray="0 0" style=""/></g><g class="divider" style=""><path d="M-41.23828125 20.5 C-23.232030131123416 20.5, -5.225779012246832 20.5, 41.23828125 20.5 M-41.23828125 20.5 C-21.436026353758166 20.5, -1.6337714575163318 20.5, 41.23828125 20.5" stroke="#999" stroke-width="1.3" fill="none" stroke-dasharray="0 0" style=""/></g></g></g></g></g></svg>